<svg xmlns="http://www.w3.org/2000/svg" viewBox="0 0 127.64 248.5"><defs><style>.cls-1{fill:#fff;}</style></defs><title>cleaning</title><g id="Layer_1-2" data-name="Layer 1"><path class="cls-1" d="M126.23,40.61,99,0,20.7,0C15.42,0,9.39,4.34,9.39,9.62V20.54c0,5.25,6.13,9.55,11.37,9.59l14.92.11a26,26,0,0,1,14,3.78C47.29,43.94,35.2,57.61,30.47,62.56a4.59,4.59,0,0,0,6.06,6.85L61.7,49.73l.12.3a80,80,0,0,1,4.38,17.28,7,7,0,0,0-4.82,6.89V88.13c0,3,1,5.59,4,6.68V106a14.12,14.12,0,0,1-9.28,13.24,75,75,0,0,0-49,60.62l-7,51.61a15,15,0,0,0,14.75,17h91.19A14.85,14.85,0,0,0,121,233.93l1.35-53.18a15,15,0,0,0-.31-3.43L105,94.68a7.45,7.45,0,0,0,4.42-6.55V74.19c0-3.4-2.83-6.25-6-7V49.5h16.86c2.84,0,5.21,0,6.56-2.53S127.8,43,126.23,40.61ZM22.46,9.7h5.93V20.66l-6-.06ZM99.39,85.5h-29v-9h29Zm13.37,95-1.36,53a5.17,5.17,0,0,1-5.33,5H14.89a5.09,5.09,0,0,1-5.28-5.81l7-51.57a65.72,65.72,0,0,1,43-52.9A23.88,23.88,0,0,0,75.39,106V95.5H95.16l17.49,83.75A5.42,5.42,0,0,1,112.76,180.48ZM96.39,43.5v23H74.61c-.85-11-3.83-24.82-14.29-35.3A34.37,34.37,0,0,0,35.48,20.61l-1.09.11v-11l60.34.09L116.79,43.5Z"/></g></svg>