<svg xmlns="http://www.w3.org/2000/svg" viewBox="0 0 182.31 233.57"><defs><style>.cls-1{fill:#fff;}</style></defs><title>circle-delivery</title><g id="Layer_1-2" data-name="Layer 1"><path class="cls-1" d="M101.51,172.57a5.5,5.5,0,0,0,5.5,5.5h28a5.5,5.5,0,0,0,0-11H107A5.5,5.5,0,0,0,101.51,172.57Z"/><path class="cls-1" d="M83.85,74.07H72.74a5.5,5.5,0,1,0,0,11H83.85a5.5,5.5,0,1,0,0-11Z"/><path class="cls-1" d="M181.72,224a6.84,6.84,0,0,0-1-1.67,61.28,61.28,0,0,0-43.46-18.23H69.44a29.77,29.77,0,0,0,.58-5.84,8.92,8.92,0,0,0,0-1.16H155a6.36,6.36,0,0,0,6-6V115.13c0-12.25-10.39-22.06-22.65-22.06H130V63.33a22.42,22.42,0,0,0-22.39-22.26H73.78C61.52,41.07,52,51.08,52,63.33v104a43.48,43.48,0,0,0-6-2.53V25.61A25.8,25.8,0,0,0,20.21,0a5.64,5.64,0,0,0-5.65,5.56,5.73,5.73,0,0,0,5.76,5.56A14.69,14.69,0,0,1,35,25.61V163.1A34.86,34.86,0,0,0,0,198.22a35.25,35.25,0,0,0,35,35.35c13,0,24.3-7.5,30.37-17.5h71.85a49.81,49.81,0,0,1,35.5,14.43,5.47,5.47,0,0,0,4,1.62,5.68,5.68,0,0,0,5-8.15ZM149,115.13v69.94H67.61A35.78,35.78,0,0,0,63,176.75V104.07h75.35C144.49,104.07,149,109,149,115.13ZM63,63.33A11,11,0,0,1,73.78,52.07h33.84A11.49,11.49,0,0,1,119,63.33V93.07H63ZM34.88,222.24a24,24,0,1,1,17.88-40l.27.31a24,24,0,0,1-18.14,39.74Z"/></g></svg>