<svg xmlns="http://www.w3.org/2000/svg" viewBox="0 0 199.36 227.73"><defs><style>.cls-1{fill:#fff;}</style></defs><title>circle-gardening</title><g id="Layer_1-2" data-name="Layer 1"><path class="cls-1" d="M191.2,84.46,180.76,74c12.72-17.59,10.29-42.94-6.37-59.61C156-4,127-4.89,109.67,12.39L78.28,43.78l-6.46,6.46L67.36,54.7a27.94,27.94,0,0,0,0,39.47l38.74,38.74L24.87,106.64l2.71-8a4.75,4.75,0,0,0-9-3l-8.53,25.25a4.75,4.75,0,1,0,9,3l2.78-8.23,99,32,3.58,3.58a28,28,0,0,0,39.47,0l27.3-27.3A27.94,27.94,0,0,0,191.2,84.46ZM116.38,19.1C130,5.52,153,6.43,167.67,21.13c12.94,12.94,15.28,32.27,6.26,46.07l-39.8-39.8a4.75,4.75,0,0,0-6.73,0l-8.8,8.89L95.4,40.09Zm68.1,98.12-27.3,27.3a18.44,18.44,0,0,1-26,0L74.07,87.46a18.44,18.44,0,0,1,0-26L78.53,57h0l5.38-5.38,37.74-6.14a4.74,4.74,0,0,0,2.61-1.35l6.53-6.6,53.69,53.69A18.44,18.44,0,0,1,184.48,117.22Z"/><path class="cls-1" d="M17.75,175.53a4.75,4.75,0,0,0-4.11,2.37C1,199.83,0,208,0,210a17.75,17.75,0,1,0,35.49,0c0-7.84-10.44-26.54-13.63-32.08A4.75,4.75,0,0,0,17.75,175.53Zm0,42.71A8.26,8.26,0,0,1,9.49,210c0-2.8,3.8-11.37,8.25-19.86C22.2,198.62,26,207.18,26,210A8.26,8.26,0,0,1,17.75,218.24Z"/></g></svg>