<svg xmlns="http://www.w3.org/2000/svg" viewBox="0 0 205.49 205.08"><defs><style>.cls-1{fill:#fff;}</style></defs><title>circle-handyman</title><g id="Layer_1-2" data-name="Layer 1"><path class="cls-1" d="M173.41,45.31a4.89,4.89,0,0,0,6.92,0l23.72-23.72a4.89,4.89,0,0,0,0-6.92L190.82,1.43a4.89,4.89,0,0,0-6.92,0L160.18,25.16a4.89,4.89,0,0,0,0,6.92l3,3-52,52.1L77,53A40.16,40.16,0,0,0,79,40.3,39.44,39.44,0,0,0,24.72,3.95a4.89,4.89,0,0,0-1.21,8.37L36.73,22.8,35,36.24l-13.69,2L11.2,24.91a4.89,4.89,0,0,0-8.45,1.16A39.41,39.41,0,0,0,39.39,79.94,39,39,0,0,0,52,77.84L86.3,112.1,75.92,122.5,61.69,108.21a4.89,4.89,0,1,0-6.94,6.9l4.7,4.72L8.18,171.11a19.9,19.9,0,0,0,28.14,28.14L87.53,148l3.25,3.26a4.89,4.89,0,1,0,6.94-6.9l-14.9-15L93.22,119l31.73,31.73a39,39,0,0,0-2.09,12.65A39.41,39.41,0,0,0,177,199.94a4.89,4.89,0,0,0,1.2-8.38l-13.24-10.45,1.7-13.41,13.68-2L190.43,179a4.89,4.89,0,0,0,8.45-1.16,39.22,39.22,0,0,0,2.75-14.48c0-21.86-17.56-39.64-39.14-39.64a40.16,40.16,0,0,0-12.71,2L118.1,94.11l52-52.1Zm-144,147A10.11,10.11,0,1,1,15.1,178L66.17,127l14.31,14.31Zm158-180.52,6.32,6.32-16.8,16.8-6.32-6.32ZM150.5,136a30,30,0,0,1,12-2.42c16.19,0,29.35,13.39,29.35,29.85q0,.64,0,1.27l-5.46-7.21a4.89,4.89,0,0,0-4.61-1.88l-20.21,3a4.89,4.89,0,0,0-4.14,4.22l-2.51,19.84a4.89,4.89,0,0,0,1.82,4.46l7.43,5.86q-.94.06-1.89.06a29.58,29.58,0,0,1-27.1-41.49,4.89,4.89,0,0,0-1-5.43L56.7,68.67a4.89,4.89,0,0,0-5.43-1A29.58,29.58,0,0,1,9.79,40.55q0-.64,0-1.28l5.47,7.21a4.89,4.89,0,0,0,4.61,1.88l20.22-3a4.89,4.89,0,0,0,4.14-4.22L46.79,21.3A4.89,4.89,0,0,0,45,16.85l-7.5-5.95c.68,0,1.37-.08,2-.08A29.64,29.64,0,0,1,69.24,40.3a30,30,0,0,1-2.42,12,4.89,4.89,0,0,0,1,5.4l77.25,77.25A4.9,4.9,0,0,0,150.5,136Z"/></g></svg>