<svg xmlns="http://www.w3.org/2000/svg" viewBox="0 0 213 264.69"><defs><style>.cls-1{fill:#fff;}</style></defs><title>circle-assembly</title><g id="Layer_2" data-name="Layer 2"><g id="Layer_1-2" data-name="Layer 1"><path class="cls-1" d="M203.41,95.19H9.42C4.3,95.19,0,99.81,0,104.92v22.42c0,5.11,4.3,8.84,9.42,8.84H12V244.67a4.34,4.34,0,0,0,0,4v11.48a4.5,4.5,0,0,0,9,0v-9H188v9a4.5,4.5,0,0,0,9,0V248.71a4.34,4.34,0,0,0,0-4V136.19h6.41c5.11,0,9.59-3.73,9.59-8.84V104.92A10,10,0,0,0,203.41,95.19ZM188,242.19H21v-106H188ZM9,127.19v-22H203.41v22Z"/><path class="cls-1" d="M185,201.46a9.27,9.27,0,0,0-9.28-9.27H38.28A9.27,9.27,0,0,0,29,201.46v22.45a9.27,9.27,0,0,0,9.28,9.27H175.72a9.27,9.27,0,0,0,9.28-9.27Zm-147-.27H174.95v23H38Z"/><circle class="cls-1" cx="106.4" cy="212.89" r="6.21"/><path class="cls-1" d="M8,89.19H84c4.11,0,7-3.56,7-8.84V57.92c0-5.29-2.93-9.74-7-9.74H8c-4.11,0-7,4.45-7,9.74V80.34C1,85.63,3.88,89.19,8,89.19Zm2-31H82v22H10Z"/><circle class="cls-1" cx="46.12" cy="69.13" r="6.21"/><path class="cls-1" d="M8,43.19H84c4.11,0,7-3.93,7-9.22V11.55c0-5.29-2.93-9.36-7-9.36H8c-4.11,0-7,4.08-7,9.36V34C1,39.26,3.88,43.19,8,43.19Zm2-32H82v23H10Z"/><circle class="cls-1" cx="46.12" cy="22.76" r="6.21"/><path class="cls-1" d="M132.3,51a25.23,25.23,0,0,0,7.17-1L174.1,84.6l.87.9a12.32,12.32,0,0,0,17.44-17.42L156.92,32.59a26,26,0,0,0,1-7.2,25.49,25.49,0,0,0-35.1-23.51,4.64,4.64,0,0,0-1.71,7.4l7,7.75-.2,4-4.13.1L116,14.37a4.64,4.64,0,0,0-7.34,1.8A25.48,25.48,0,0,0,132.3,51ZM119.06,29.3a4.6,4.6,0,0,0,3.15,1.13l10.22-.26a4.64,4.64,0,0,0,4.51-4.41l.5-10.18a4.64,4.64,0,0,0-1.19-3.33l-2.64-2.93a16.2,16.2,0,0,1,15,16.07A16.44,16.44,0,0,1,147.32,32a4.64,4.64,0,0,0,1,5.12l37.1,37.1.45.45a3,3,0,0,1-2.15,5.2,3,3,0,0,1-2.1-.84l-.84-.87-.05-.05L143.95,41.33a4.64,4.64,0,0,0-5.15-1A16.18,16.18,0,0,1,116.16,26.8Z"/></g></g></svg>