<?xml version="1.0" encoding="UTF-8" standalone="no"?>
<svg width="17px" height="14px" viewBox="0 0 17 14" version="1.1" xmlns="http://www.w3.org/2000/svg" xmlns:xlink="http://www.w3.org/1999/xlink">
    <!-- Generator: Sketch 3.8.3 (29802) - http://www.bohemiancoding.com/sketch -->
    <title>Checkbox tick</title>
    <defs></defs>
    <g transform="translate(-149.000000, -308.000000)" stroke="#007FAD" stroke-width="0.5" fill="#007FAD">
        <path d="M164.033259,309.242 L155.291443,318.722169 L151.460415,314.500102 C151.145351,314.153694 150.612523,314.131383 150.271976,314.448434 C150.107494,314.602263 150.011354,314.811281 150.000929,315.039089 C149.990504,315.266896 150.068111,315.484135 150.219852,315.652054 L154.636991,320.523489 C154.794523,320.694932 155.006496,320.792396 155.212677,320.795918 C155.477933,320.798267 155.686431,320.712546 155.843963,320.556369 L165.207797,310.46206 C165.368804,310.303534 165.457995,310.090993 165.460312,309.863186 C165.463787,309.635378 165.379229,309.420488 165.221697,309.25844 C165.065324,309.094043 164.854509,309.003625 164.630953,309.000102 C164.374964,308.996579 164.194266,309.084649 164.033259,309.242 Z" id="checkbox-tick"></path>
    </g>
</svg>