<?xml version="1.0" encoding="UTF-8"?><!DOCTYPE svg PUBLIC "-//W3C//DTD SVG 1.1//EN" "http://www.w3.org/Graphics/SVG/1.1/DTD/svg11.dtd"><svg xmlns="http://www.w3.org/2000/svg" xmlns:xlink="http://www.w3.org/1999/xlink"><defs><style>.cls-1{fill:#fff}</style><style>.cls-1{fill:#fff}</style><style>.cls-1{fill:#fff}</style><style>.cls-1{fill:#fff}</style><style>.cls-1{fill:#fff}</style><path id="a" d="M0 50.156h50V.148H0z"/></defs><symbol id="AirtaskerLogoSmall" viewBox="0 0 18 18"><path d="M17 10.51c0-.56-.25-1.521-.8-2.309-.649-.928-1.532-1.399-2.627-1.399H4.387c.118 1.016.46 1.819 1.022 2.393.987 1.01 2.372 1.027 2.41 1.027l.827-.013v.859c0 2.216 1.685 2.515 3.333 2.515h.132v1.692h-.132c-3.562 0-4.68-1.726-4.912-3.437-.738-.13-1.869-.483-2.801-1.437C3.234 9.345 2.711 7.85 2.711 5.956V5.11h10.862c1.366 0 2.425.515 3.214 1.255C15.735 2.685 12.455 0 8.571 0 3.837 0 0 3.987 0 8.905c0 4.918 3.837 8.905 8.57 8.905 4.202 0 7.697-3.142 8.43-7.287v-.013" fill-rule="evenodd"/></symbol><symbol id="AirtaskerLogo_colour" viewBox="0 0 141 23"><g fill-rule="evenodd" fill="#19759B"><path d="M140.663 11.607l-.026-4.488c-.873.036-3.502.388-4.67 1.791V7.422h-4.878v14.963h4.878v-6.949c.002-.039.007-.078.011-.117.708-3.334 3.873-3.685 4.685-3.712M96.702 11.785c-.604-.576-1.235-.867-1.779-1.129a3.924 3.924 0 0 0-1.723-.393c-.464 0-.892.09-1.285.272-.393.182-.59.495-.59.937 0 .423.216.726.65.908.433.181 1.134.382 2.101.605.564.121 1.134.291 1.709.513a6.009 6.009 0 0 1 1.557.878 4.18 4.18 0 0 1 1.119 1.33c.282.525.424 1.149.424 1.875 0 .947-.192 1.75-.575 2.404a4.717 4.717 0 0 1-1.497 1.587 6.45 6.45 0 0 1-2.071.877 9.916 9.916 0 0 1-2.298.272c-1.23 0-2.435-.196-3.614-.59-1.18-.392-2.162-.972-2.948-1.738l2.425-3.046c.444.485 1.344 1.001 1.989 1.322a4.537 4.537 0 0 0 2.057.485c.403 0 .801-.097 1.194-.288.393-.192.59-.53.59-1.013 0-.464-.242-.806-.726-1.029-.483-.221-1.239-.452-2.268-.695a11.86 11.86 0 0 1-1.573-.483 5.015 5.015 0 0 1-1.406-.816 4.073 4.073 0 0 1-1.012-1.272c-.262-.503-.394-1.108-.394-1.814 0-.907.192-1.678.575-2.313a4.862 4.862 0 0 1 1.482-1.557 6.61 6.61 0 0 1 2.01-.893 8.749 8.749 0 0 1 2.193-.287c1.129 0 2.233.177 3.311.529 1.079.353 1.991.882 2.737 1.588l-2.364 2.974M125.427 12.961a2.92 2.92 0 0 0-.729-1.872c-.489-.558-1.222-.838-2.199-.838-.479 0-.916.075-1.316.224-.398.15-.747.355-1.046.614a3.038 3.038 0 0 0-.718.912 2.648 2.648 0 0 0-.288.96h6.296zm4.518 2.015v.599c0 .199-.009.388-.029.567h-10.795c.039.42.164.798.373 1.137.209.34.479.633.808.883.329.248.697.444 1.106.582.408.14.832.209 1.27.209.778 0 1.436-.143 1.975-.433a3.911 3.911 0 0 0 1.316-1.121l3.409 2.153a6.927 6.927 0 0 1-2.766 2.348c-1.148.548-2.478.822-3.993.822a9.538 9.538 0 0 1-3.169-.524 7.665 7.665 0 0 1-2.617-1.525 7.036 7.036 0 0 1-1.764-2.467c-.43-.977-.643-2.093-.643-3.35 0-1.215.208-2.317.628-3.304.418-.986.986-1.824 1.704-2.511a7.57 7.57 0 0 1 2.542-1.6c.976-.379 2.033-.569 3.169-.569 1.097 0 2.104.185 3.021.554a6.557 6.557 0 0 1 2.362 1.6c.658.697 1.171 1.545 1.541 2.541.368.997.552 2.133.552 3.409zM70.83 11.464v-4.5h-4.203V3.612c-.11-1.936-1.018-3.373-4.745-3.375v17.404c0 .761.099 1.45.27 2.068.171.619.451 1.152.84 1.598.389.448.906.79 1.55 1.028.646.237 1.62.356 2.568.356 1.463 0 2.481-.201 3.72-.616v-3.973s-1.167.319-2.438.319c-.666 0-1.124-.166-1.382-.5-.256-.334-.383-.833-.383-1.5v-4.957h4.203"/><path d="M110.194 14.4l5.533-7.008h-5.892l-4.878 6.158V3.708c-.084-1.983-.959-3.466-4.738-3.47v22.149h4.738v-7.152l5.606 7.152h5.928l-6.297-7.987M84.985 22.372v-9.91c0-4.261-3.381-5.795-6.373-5.795-3.253 0-5.215 1.038-6.518 2.124l2.474 3.077c.823-.767 2.456-1.552 3.559-1.552 1.803 0 2.175 1.031 2.175 2.35v.254h-1.623c-4.159 0-6.662 1.809-6.662 5.021 0 3.509 3.084 4.431 6.837 4.431h6.131zm-4.683-3.115c-.508-.002-1.114.01-1.555 0-1.217-.026-1.961-.504-1.961-1.553 0-1.047.744-1.653 2.232-1.653h1.284v3.206zM44.596 2.953c0 1.542 1.274 2.749 2.716 2.749a2.741 2.741 0 0 0 2.75-2.749c0-1.508-1.242-2.715-2.75-2.715-1.442 0-2.716 1.207-2.716 2.715M45.056 6.996h-.197v15.389h4.939V10.234c-.143-1.869-1.095-3.238-4.742-3.238M60.762 11.607l-.025-4.488c-.875.036-3.502.388-4.671 1.791V7.422h-4.878v14.963h4.878v-6.949c.002-.039.007-.078.011-.117.709-3.334 3.873-3.685 4.685-3.712M139.238 20.13h-.278v.516h.278c.161 0 .27-.114.27-.257 0-.145-.109-.259-.27-.259zm.27 1.441l-.338-.677h-.21v.677h-.304v-1.707h.621a.52.52 0 0 1 .531.525c0 .24-.143.397-.325.462l.367.72h-.342zm-.32-2.138c-.684 0-1.225.567-1.225 1.287 0 .721.541 1.287 1.225 1.287.683 0 1.22-.566 1.22-1.287 0-.72-.537-1.287-1.22-1.287zm0 2.867c-.845 0-1.529-.707-1.529-1.58 0-.873.684-1.58 1.529-1.58.844 0 1.528.707 1.528 1.58 0 .873-.684 1.58-1.528 1.58zM31.056 13.706l2.196-6.333 2.196 6.333h-4.392zM35.592.25h-4.444l-6.777 18.015h-2.705c-2.117 0-3.967-.463-5.21-1.302-1.275-.862-1.895-2.101-1.895-3.788v-2.08h-2.175c-.09 0-3.253-.009-5.493-2.218-1.128-1.112-1.84-2.624-2.128-4.515h15.259c2.773 0 3.795 1.353 4.433 2.569a8.098 8.098 0 0 1 .719 1.926l1.912-5.082S25.471.255 20.024.255H.508v2.054c0 4.011 1.178 7.205 3.5 9.494 2.175 2.143 4.852 2.948 6.622 3.248.884 4.507 5.02 7.323 11.036 7.323h6.256l1.431-4.063 7.802.008 1.429 4.055h5.343L35.592.25z"/></g></symbol><symbol id="alert" viewBox="0 0 24 24"><g fill-rule="evenodd"><path d="M12 22c5.523 0 10-4.477 10-10S17.523 2 12 2 2 6.477 2 12s4.477 10 10 10zm0 2C5.373 24 0 18.627 0 12S5.373 0 12 0s12 5.373 12 12-5.373 12-12 12z"/><path d="M11.164 16.873h1.789v-1.731h-1.79v1.73zM11.236 13.89h1.615l.16-7.345h-1.92l.145 7.346z"/></g></symbol><symbol id="arrow-down" viewBox="0 0 12 12"><path d="M6 12L0 6h12z"/></symbol><symbol id="arrow-left" viewBox="0 0 12 12"><path d="M0 6l6-6v12z"/></symbol><symbol id="arrow-line-direction-left" viewBox="0 0 17 17"><path d="M4.107 9.5H16a1 1 0 0 0 0-2H3.945l5.764-5.795A1 1 0 1 0 8.291.295L.945 7.679a.997.997 0 0 0-.29.68.997.997 0 0 0 .28.737l7.346 7.599a1 1 0 1 0 1.438-1.39L4.107 9.5z" fill-rule="evenodd"/></symbol><symbol id="arrow-line-direction-right" viewBox="0 0 17 17"><path d="M13.546 7.5H1.654a1 1 0 0 0 0 2h12.055l-5.764 5.795a1 1 0 1 0 1.418 1.41l7.345-7.384A.997.997 0 0 0 17 8.64a.997.997 0 0 0-.28-.737L9.373.305a1 1 0 1 0-1.438 1.39L13.546 7.5z" fill-rule="evenodd"/></symbol><symbol id="arrow-line" viewBox="0 0 28 16"><path d="M.438 1.826a1 1 0 0 1 .88-1.775c.3.1.562.19 11.986 12.547L24.972.311a1.001 1.001 0 0 1 1.45 1.377L13.598 15.193a.43.43 0 0 1-.626-.002L.438 1.826z"/></symbol><symbol id="arrow-right" viewBox="0 0 12 12"><path d="M12 6l-6 6V0z"/></symbol><symbol id="arrow-up" viewBox="0 0 12 12"><path d="M6 0l6 6H0z"/></symbol><symbol id="arrow" viewBox="0 0 12 12"><path d="M6 0l6 6H0z"/></symbol><symbol id="assembly" viewBox="0 0 213 264.69"><g id="Layer_2" data-name="Layer 2"><g id="Layer_1-2" data-name="Layer 1"><path class="cls-1" d="M203.41 95.19H9.42C4.3 95.19 0 99.81 0 104.92v22.42c0 5.11 4.3 8.84 9.42 8.84H12v108.49a4.34 4.34 0 0 0 0 4v11.48a4.5 4.5 0 0 0 9 0v-9h167v9a4.5 4.5 0 0 0 9 0v-11.44a4.34 4.34 0 0 0 0-4V136.19h6.41c5.11 0 9.59-3.73 9.59-8.84v-22.43a10 10 0 0 0-9.59-9.73zm-15.41 147H21v-106h167zm-179-115v-22h194.41v22z"/><path class="cls-1" d="M185 201.46a9.27 9.27 0 0 0-9.28-9.27H38.28a9.27 9.27 0 0 0-9.28 9.27v22.45a9.27 9.27 0 0 0 9.28 9.27h137.44a9.27 9.27 0 0 0 9.28-9.27zm-147-.27h136.95v23H38z"/><circle class="cls-1" cx="106.4" cy="212.89" r="6.21"/><path class="cls-1" d="M8 89.19h76c4.11 0 7-3.56 7-8.84V57.92c0-5.29-2.93-9.74-7-9.74H8c-4.11 0-7 4.45-7 9.74v22.42c0 5.29 2.88 8.85 7 8.85zm2-31h72v22H10z"/><circle class="cls-1" cx="46.12" cy="69.13" r="6.21"/><path class="cls-1" d="M8 43.19h76c4.11 0 7-3.93 7-9.22V11.55c0-5.29-2.93-9.36-7-9.36H8c-4.11 0-7 4.08-7 9.36V34c0 5.26 2.88 9.19 7 9.19zm2-32h72v23H10z"/><circle class="cls-1" cx="46.12" cy="22.76" r="6.21"/><path class="cls-1" d="M132.3 51a25.23 25.23 0 0 0 7.17-1l34.63 34.6.87.9a12.32 12.32 0 0 0 17.44-17.42l-35.49-35.49a26 26 0 0 0 1-7.2 25.49 25.49 0 0 0-35.1-23.51 4.64 4.64 0 0 0-1.71 7.4l7 7.75-.2 4-4.13.1-7.78-6.76a4.64 4.64 0 0 0-7.34 1.8A25.48 25.48 0 0 0 132.3 51zm-13.24-21.7a4.6 4.6 0 0 0 3.15 1.13l10.22-.26a4.64 4.64 0 0 0 4.51-4.41l.5-10.18a4.64 4.64 0 0 0-1.19-3.33l-2.64-2.93a16.2 16.2 0 0 1 15 16.07 16.44 16.44 0 0 1-1.29 6.61 4.64 4.64 0 0 0 1 5.12l37.1 37.1.45.45a3 3 0 0 1-2.15 5.2 3 3 0 0 1-2.1-.84l-.84-.87-.05-.05-36.78-36.78a4.64 4.64 0 0 0-5.15-1 16.18 16.18 0 0 1-22.64-13.53z"/></g></g></symbol><symbol id="bell" viewBox="0 0 18 21"><path d="M16.21 12.605c-.35-.978-.864-1.863-1.272-2.81-.766-1.777-.584-3.656-1.023-5.494-.273-1.141-.827-2.211-1.731-2.975C11.157.458 9.543.001 8.543 0c-1 .001-2.614.458-3.641 1.326-.903.764-1.458 1.834-1.731 2.975-.438 1.838-.257 3.717-1.023 5.494-.408.947-.923 1.832-1.273 2.81a15.29 15.29 0 0 0-.873 4.512c-.02.449.152.787.47 1.12.308.322.712.388 1.139.388H6.33c.102.992 1.046 1.981 2.213 1.997 1.167-.016 2.11-1.005 2.213-1.997h4.719c.427 0 .83-.066 1.138-.388.319-.333.49-.671.472-1.12a15.324 15.324 0 0 0-.874-4.512zm-.966 4.02H1.842c-.092 0 .064-.591.08-.739.043-.354.098-.61.166-.961.135-.698.318-1.345.57-2.01.384-1.014 1.027-1.866 1.427-2.872a9.434 9.434 0 0 0 .67-3.166c.056-1.575.015-3.049 1.33-4.158.704-.595 1.458-.884 2.458-.882 1-.002 1.754.287 2.458.882 1.315 1.109 1.274 2.583 1.329 4.158a9.434 9.434 0 0 0 .67 3.166c.4 1.006 1.044 1.858 1.428 2.872.252.665.435 1.312.57 2.01.068.351.123.607.165.961.017.148.174.739.08.739z" fill-rule="evenodd"/></symbol><symbol id="calendar" viewBox="0 0 22 22"><g><path d="M17.502 20.48H4.077c-1.403 0-2.557-1.182-2.557-2.63V4.89c0-1.449 1.154-2.63 2.557-2.63h13.425c1.402 0 2.557 1.181 2.557 2.63v12.96c0 1.448-1.155 2.63-2.557 2.63zm0 1.04c1.982 0 3.597-1.653 3.597-3.67V4.89c0-2.018-1.615-3.67-3.597-3.67H4.077C2.095 1.22.48 2.871.48 4.89v12.96c0 2.017 1.615 3.67 3.597 3.67h13.425z"/><path d="M1.118 5.596h19.487v-1.04H1.118v1.04zM4.35 3.507a.397.397 0 0 1-.39-.4V.4c0-.22.175-.4.39-.4.216 0 .392.18.392.4v2.706c0 .22-.176.4-.391.4M7.602 3.507a.397.397 0 0 1-.392-.4V.4c0-.22.176-.4.392-.4.215 0 .391.18.391.4v2.706c0 .22-.176.4-.391.4M10.853 3.507a.397.397 0 0 1-.392-.4V.4c0-.22.176-.4.392-.4.215 0 .39.18.39.4v2.706c0 .22-.175.4-.39.4M14.104 3.507a.397.397 0 0 1-.392-.4V.4c0-.22.176-.4.392-.4.215 0 .39.18.39.4v2.706c0 .22-.175.4-.39.4M17.354 3.507a.397.397 0 0 1-.39-.4V.4c0-.22.175-.4.39-.4.216 0 .392.18.392.4v2.706c0 .22-.176.4-.392.4M4.703 11.017h-.611a.827.827 0 0 1-.817-.837v-.427c0-.462.366-.836.817-.836h.61c.452 0 .818.374.818.836v.427a.827.827 0 0 1-.817.837M7.93 11.017h-.61a.827.827 0 0 1-.817-.837v-.427c0-.462.365-.836.817-.836h.61c.452 0 .817.374.817.836v.427a.827.827 0 0 1-.817.837M10.547 11.017a.827.827 0 0 1-.817-.837v-.427c0-.462.366-.836.817-.836h.611c.451 0 .817.374.817.836v.427a.827.827 0 0 1-.817.837h-.61zM14.386 11.017h-.611a.827.827 0 0 1-.817-.837v-.427c0-.462.366-.836.817-.836h.61c.452 0 .818.374.818.836v.427a.827.827 0 0 1-.817.837M17.613 11.017h-.61a.827.827 0 0 1-.817-.837v-.427c0-.462.365-.836.817-.836h.61c.452 0 .817.374.817.836v.427a.827.827 0 0 1-.817.837M4.703 14.273h-.611a.827.827 0 0 1-.817-.836v-.427c0-.462.366-.837.817-.837h.61c.452 0 .818.375.818.837v.427a.827.827 0 0 1-.817.836M7.93 14.273h-.61a.827.827 0 0 1-.817-.836v-.427c0-.462.365-.837.817-.837h.61c.452 0 .817.375.817.837v.427a.827.827 0 0 1-.817.836M11.158 14.273h-.61a.827.827 0 0 1-.818-.836v-.427c0-.462.366-.837.817-.837h.611c.451 0 .817.375.817.837v.427a.827.827 0 0 1-.817.836M14.386 14.273h-.611a.827.827 0 0 1-.817-.836v-.427c0-.462.366-.837.817-.837h.61c.452 0 .818.375.818.837v.427a.827.827 0 0 1-.817.836M17.613 14.273h-.61a.827.827 0 0 1-.817-.836v-.427c0-.462.365-.837.817-.837h.61c.452 0 .817.375.817.837v.427a.827.827 0 0 1-.817.836M4.703 17.63h-.611a.827.827 0 0 1-.817-.836v-.428c0-.462.366-.836.817-.836h.61c.452 0 .818.374.818.836v.428a.827.827 0 0 1-.817.836M7.93 17.63h-.61a.827.827 0 0 1-.817-.836v-.428c0-.462.365-.836.817-.836h.61c.452 0 .817.374.817.836v.428a.827.827 0 0 1-.817.836M10.547 17.63a.827.827 0 0 1-.817-.836v-.428c0-.462.366-.836.817-.836h.611c.451 0 .817.374.817.836v.428a.827.827 0 0 1-.817.836h-.61z"/></g></symbol><symbol id="checkbox-tick" viewBox="0 0 17 14"><path d="M15.033 1.242l-8.742 9.48L2.461 6.5a.835.835 0 0 0-1.189-.052.856.856 0 0 0-.271.591.85.85 0 0 0 .219.613l4.417 4.871c.158.172.37.27.576.273a.848.848 0 0 0 .631-.24l9.364-10.094a.846.846 0 0 0 .252-.599.843.843 0 0 0-.238-.605A.828.828 0 0 0 15.63 1a.784.784 0 0 0-.598.242z" stroke="#007FAD" stroke-width=".5"/></symbol><symbol id="cleaning" viewBox="0 0 127.64 248.5"><path class="cls-1" d="M126.23 40.61L99 0H20.7C15.42 0 9.39 4.34 9.39 9.62v10.92c0 5.25 6.13 9.55 11.37 9.59l14.92.11a26 26 0 0 1 14 3.78c-2.39 9.92-14.48 23.59-19.21 28.54a4.59 4.59 0 0 0 6.06 6.85L61.7 49.73l.12.3a80 80 0 0 1 4.38 17.28 7 7 0 0 0-4.82 6.89v13.93c0 3 1 5.59 4 6.68V106a14.12 14.12 0 0 1-9.28 13.24 75 75 0 0 0-49 60.62l-7 51.61a15 15 0 0 0 14.75 17h91.19A14.85 14.85 0 0 0 121 233.93l1.35-53.18a15 15 0 0 0-.31-3.43L105 94.68a7.45 7.45 0 0 0 4.42-6.55V74.19c0-3.4-2.83-6.25-6-7V49.5h16.86c2.84 0 5.21 0 6.56-2.53s.96-3.97-.61-6.36zM22.46 9.7h5.93v10.96l-6-.06zm76.93 75.8h-29v-9h29zm13.37 95l-1.36 53a5.17 5.17 0 0 1-5.33 5H14.89a5.09 5.09 0 0 1-5.28-5.81l7-51.57a65.72 65.72 0 0 1 43-52.9A23.88 23.88 0 0 0 75.39 106V95.5h19.77l17.49 83.75a5.42 5.42 0 0 1 .11 1.23zm-16.37-137v23H74.61c-.85-11-3.83-24.82-14.29-35.3a34.37 34.37 0 0 0-24.84-10.59l-1.09.11v-11l60.34.09 22.06 33.69z" id="Layer_1-2" data-name="Layer 1"/></symbol><symbol id="close-cross-new" viewBox="0 0 17 17"><path d="M8.75 6.586L15.043.293a1 1 0 0 1 1.414 1.414L10.164 8l6.293 6.293a1 1 0 0 1-1.414 1.414L8.75 9.414l-6.293 6.293a1 1 0 1 1-1.414-1.414L7.336 8 1.043 1.707A1 1 0 1 1 2.457.293L8.75 6.586z"/></symbol><symbol id="coin-stars" viewBox="0 0 99 95"><path d="M67.75 25.107c2.18 0 3.951 1.772 3.951 3.95a.975.975 0 0 0 1.948 0c0-2.866-2.11-5.347-4.924-5.817v-1.568a.973.973 0 0 0-1.947 0v1.568c-2.813.47-4.922 2.95-4.922 5.818a5.902 5.902 0 0 0 5.894 5.896c2.18 0 3.951 1.771 3.951 3.95a3.953 3.953 0 0 1-3.95 3.948 3.951 3.951 0 0 1-3.948-3.948.974.974 0 0 0-1.947 0c0 2.866 2.109 5.345 4.923 5.815v1.568a.973.973 0 0 0 1.946 0v-1.568c2.814-.47 4.924-2.95 4.924-5.815a5.906 5.906 0 0 0-5.899-5.897 3.953 3.953 0 0 1-3.947-3.95c0-2.178 1.77-3.95 3.947-3.95M37.128 55.73c2.179 0 3.95 1.773 3.95 3.95a.974.974 0 0 0 1.947 0c0-2.867-2.108-5.347-4.924-5.815v-1.569a.975.975 0 0 0-.973-.974.976.976 0 0 0-.974.974v1.569c-2.812.468-4.92 2.948-4.92 5.815a5.902 5.902 0 0 0 5.894 5.896c2.179 0 3.95 1.772 3.95 3.951a3.954 3.954 0 0 1-3.95 3.95 3.954 3.954 0 0 1-3.95-3.95.973.973 0 0 0-1.945 0c0 2.865 2.109 5.344 4.921 5.814v1.568c0 .537.438.975.974.975a.975.975 0 0 0 .973-.975v-1.568c2.816-.47 4.924-2.949 4.924-5.814a5.904 5.904 0 0 0-5.897-5.897 3.954 3.954 0 0 1-3.95-3.95 3.955 3.955 0 0 1 3.95-3.95" fill-opacity=".7"/><path d="M67.75 3.677c-16.708 0-30.302 13.594-30.302 30.303 0 .11.002.217.004.326a10.801 10.801 0 0 0-.323-.005c-16.708 0-30.3 13.594-30.3 30.302s13.592 30.302 30.3 30.302 30.3-13.594 30.3-30.302c0-.11 0-.217-.002-.322l.323.001c16.71 0 30.304-13.594 30.304-30.302 0-16.71-13.594-30.303-30.304-30.303zM37.13 92.484c-15.375 0-27.881-12.507-27.881-27.881s12.506-27.88 27.88-27.88c.146 0 .295.002.445.01.634 7.023 3.742 13.646 8.76 18.664 5.018 5.018 11.642 8.125 18.665 8.76.006.15.011.298.011.446 0 15.374-12.507 27.88-27.88 27.88zM67.75 61.86c-.421 0-.843-.01-1.252-.027a1.076 1.076 0 0 0-.423-.052c-.056.004-.11.008-.164.02-13.906-.91-25.07-12.073-25.98-25.98a1.187 1.187 0 0 0-.034-.588 30.395 30.395 0 0 1-.027-1.254c0-15.374 12.507-27.88 27.88-27.88 15.374 0 27.881 12.506 27.881 27.88 0 15.374-12.507 27.881-27.88 27.881z"/><path d="M17.243 28.243L13 36l-4.243-7.757L1 24l7.757-4.243L13 12l4.243 7.757L25 24l-7.757 4.243zM34.121 15.121L32 19l-2.121-3.879L26 13l3.879-2.121L32 7l2.121 3.879L38 13l-3.879 2.121zM21.06 4.06L20 6l-1.06-1.94L17 3l1.94-1.06L20 0l1.06 1.94L23 3l-1.94 1.06z" fill-opacity=".7"/></symbol><symbol id="credit-card-stars_colour" viewBox="0 0 149 97"><rect stroke="#007FAD" stroke-width="3" fill="#FFF" x="35" y="23" width="100" height="60" rx="8"/><rect fill-opacity=".7" fill="#007FAD" x="47" y="37" width="15" height="15" rx="4"/><rect fill-opacity=".7" fill="#007FAD" x="47" y="63" width="20" height="5" rx="2"/><rect fill-opacity=".7" fill="#007FAD" x="72" y="63" width="20" height="5" rx="2"/><rect fill-opacity=".7" fill="#007FAD" x="97" y="63" width="20" height="5" rx="2"/><path d="M9 30L.515 32.485 3 24 .515 15.515 9 18l8.485-2.485L15 24l2.485 8.485L9 30zM28 16l-4.243 1.243L25 13l-1.243-4.243L28 10l4.243-1.243L31 13l1.243 4.243L28 16zM17.06 4.06L16 6l-1.06-1.94L13 3l1.94-1.06L16 0l1.06 1.94L19 3l-1.94 1.06z" fill-opacity=".7" fill="#007FAD"/></symbol><symbol id="cross-circle" viewBox="0 0 16 16"><path d="M8 8.571l-2.31 2.31a.404.404 0 1 1-.572-.57L7.428 8l-2.31-2.31a.404.404 0 1 1 .571-.572L8 7.428l2.31-2.31a.404.404 0 1 1 .572.571L8.572 8l2.31 2.31a.404.404 0 1 1-.571.572L8 8.572zM16 8A8 8 0 1 1 0 8a8 8 0 0 1 16 0z" fill-rule="evenodd"/></symbol><symbol id="delivery" viewBox="0 0 182.31 233.57"><g id="Layer_1-2" data-name="Layer 1"><path class="cls-1" d="M101.51 172.57a5.5 5.5 0 0 0 5.5 5.5h28a5.5 5.5 0 0 0 0-11H107a5.5 5.5 0 0 0-5.49 5.5zM83.85 74.07H72.74a5.5 5.5 0 1 0 0 11h11.11a5.5 5.5 0 1 0 0-11z"/><path class="cls-1" d="M181.72 224a6.84 6.84 0 0 0-1-1.67 61.28 61.28 0 0 0-43.46-18.23H69.44a29.77 29.77 0 0 0 .58-5.84 8.92 8.92 0 0 0 0-1.16H155a6.36 6.36 0 0 0 6-6v-75.97c0-12.25-10.39-22.06-22.65-22.06H130V63.33a22.42 22.42 0 0 0-22.39-22.26H73.78C61.52 41.07 52 51.08 52 63.33v104a43.48 43.48 0 0 0-6-2.53V25.61A25.8 25.8 0 0 0 20.21 0a5.64 5.64 0 0 0-5.65 5.56 5.73 5.73 0 0 0 5.76 5.56A14.69 14.69 0 0 1 35 25.61V163.1a34.86 34.86 0 0 0-35 35.12 35.25 35.25 0 0 0 35 35.35c13 0 24.3-7.5 30.37-17.5h71.85a49.81 49.81 0 0 1 35.5 14.43 5.47 5.47 0 0 0 4 1.62 5.68 5.68 0 0 0 5-8.15zM149 115.13v69.94H67.61a35.78 35.78 0 0 0-4.61-8.32v-72.68h75.35c6.14 0 10.65 4.93 10.65 11.06zm-86-51.8a11 11 0 0 1 10.78-11.26h33.84A11.49 11.49 0 0 1 119 63.33v29.74H63zM34.88 222.24a24 24 0 1 1 17.88-40l.27.31a24 24 0 0 1-18.14 39.74z"/></g></symbol><symbol id="desktop" viewBox="0 0 33 30"><g fill-rule="evenodd"><path d="M30.025.507H3.064A2.688 2.688 0 0 0 .379 3.192v20.491a2.688 2.688 0 0 0 2.685 2.685h12.952v2.179H7.378a.529.529 0 0 0 0 1.057H26.79a.529.529 0 0 0 0-1.057h-9.717v-2.179h12.952a2.688 2.688 0 0 0 2.686-2.685V3.192A2.689 2.689 0 0 0 30.025.507zM3.064 1.564h26.961c.898 0 1.63.73 1.63 1.628v16.727H1.434V3.192c0-.898.73-1.628 1.629-1.628zM30.025 25.31H3.064a1.63 1.63 0 0 1-1.629-1.628v-2.707h30.22v2.707a1.63 1.63 0 0 1-1.63 1.628z"/><path d="M16.544 22.076a1.069 1.069 0 0 0 0 2.136 1.07 1.07 0 0 0 0-2.136"/></g></symbol><symbol id="envelope" viewBox="0 0 24 20"><path d="M19.61 0H4.39A4.395 4.395 0 0 0 0 4.39v10.72A3.89 3.89 0 0 0 3.89 19h16.22A3.89 3.89 0 0 0 24 15.11V4.39A4.395 4.395 0 0 0 19.61 0zM4.412 2h15.176c1.034 0 1.911.657 2.253 1.573-.906.568-4.676 3.242-7.685 5.18-.897.578-1.526.867-2.156.869-.63-.002-1.259-.291-2.156-.869-3.009-1.938-6.779-4.612-7.685-5.18A2.409 2.409 0 0 1 4.412 2zM22 14.588A2.415 2.415 0 0 1 19.588 17H4.412A2.415 2.415 0 0 1 2 14.588V5.809c1.617 1.014 4.353 3.05 6.773 4.608 1.261.812 2.257 1.175 3.227 1.176.97-.001 1.966-.364 3.227-1.176 2.42-1.558 5.156-3.594 6.773-4.608v8.779z" fill-rule="evenodd"/></symbol><symbol id="error-circle" viewBox="0 0 22 22"><path d="M11 21c5.523 0 10-4.477 10-10S16.523 1 11 1 1 5.477 1 11s4.477 10 10 10zm0 1C4.925 22 0 17.075 0 11S4.925 0 11 0s11 4.925 11 11-4.925 11-11 11z"/><path d="M14.824 13.975l-2.97-2.972 2.97-2.973a.605.605 0 0 0-.854-.853L11 10.149 8.03 7.177a.603.603 0 1 0-.854.853l2.971 2.973-2.97 2.972a.606.606 0 0 0 0 .854.618.618 0 0 0 .853 0L11 11.856l2.97 2.973a.618.618 0 0 0 .854 0 .606.606 0 0 0 0-.854"/></symbol><symbol id="error-triangle" viewBox="0 0 24 23"><path d="M8.248 2.496c1.815-3.328 5.524-3.328 7.34 0l7.57 13.878c1.784 3.271-.113 6.467-3.839 6.467H4.516c-3.726 0-5.623-3.195-3.838-6.467l7.57-13.878zM2.434 17.332c-1.058 1.939-.125 3.51 2.082 3.51H19.32c2.208 0 3.14-1.572 2.083-3.51l-7.57-13.878c-1.058-1.939-2.771-1.938-3.829 0l-7.57 13.878zm8.484.51h2v-2h-2v2zm.151-3h1.682l.167-7h-2l.151 7z" fill-rule="evenodd"/></symbol><symbol id="facebook-circle" viewBox="0 0 26 26"><path d="M15.746 7.992H14.57c-.923 0-1.102.422-1.102 1.039v1.362h2.2l-.286 2.133h-1.914V18h-2.295v-5.473H9.255v-2.134h1.918V8.82c0-1.826 1.162-2.82 2.858-2.82.813 0 1.511.058 1.715.084v1.908zM12.5 0C5.597 0 0 5.372 0 12c0 6.627 5.597 12 12.5 12C19.404 24 25 18.627 25 12c0-6.628-5.596-12-12.5-12z" fill-rule="evenodd"/></symbol><symbol id="file" viewBox="0 0 32 43"><g fill-rule="evenodd"><g><path d="M25.5 40.1H6c-2.186 0-4-1.79-4-4v-30c0-2.186 1.79-4 4-4h18.5l-.64-.232 6 5-.36-.768v30c0 2.248-1.752 4-4 4zm0 2c3.352 0 6-2.648 6-6V5.632l-.36-.3-6-5L24.862.1H6c-3.321 0-6 2.716-6 6v30c0 3.321 2.716 6 6 6h19.5z"/><path d="M23.5 1.1v4.4c0 1.152.948 2.1 2.1 2.1h4.8v-2h-4.8c-.048 0-.1-.052-.1-.1V1.1h-2z"/></g><g><path d="M5.812 11.403h13.282v-2H4.812v2h1zM5.812 15.403h21.28v-2H4.812v2h1zM5.812 19.8h18.28v-2H4.812v2h1zM5.812 23.8h20.28v-2H4.812v2h1z"/></g></g></symbol><symbol id="flag" viewBox="0 0 14 14"><path d="M5.962 2.28l-.365.87c.6-.159 1.541-.107 2.757.91 1.823 1.527 4.104.046 4.2-.018a.292.292 0 0 1 .34.014.275.275 0 0 1 .085.323L11.25 8.478a.28.28 0 0 1-.103.124 5.44 5.44 0 0 1-1.61.674c-.35.083-.69.124-1.019.124a3.453 3.453 0 0 1-2.265-.817C4.633 7.226 3.725 7.867 3.56 8.01L1.55 12.8a.286.286 0 0 1-.372.152.277.277 0 0 1-.157-.364L5.435 2.065a.63.63 0 0 1-.165-.424A.65.65 0 0 1 5.926 1a.65.65 0 0 1 .656.64.648.648 0 0 1-.62.64zm-1.56 4.901c.572 0 1.323.224 2.224.979 1.653 1.383 3.73.264 4.13.024l1.392-3.301a5.509 5.509 0 0 1-.883.294c-1.25.298-2.385.059-3.283-.692-1.603-1.343-2.512-.727-2.688-.58l-1.409 3.34c.152-.038.324-.064.517-.064z" stroke="#839094" stroke-width=".2" fill-rule="evenodd"/></symbol><symbol id="gardening" viewBox="0 0 199.36 227.73"><g id="Layer_1-2" data-name="Layer 1"><path class="cls-1" d="M191.2 84.46L180.76 74c12.72-17.59 10.29-42.94-6.37-59.61C156-4 127-4.89 109.67 12.39L78.28 43.78l-6.46 6.46-4.46 4.46a27.94 27.94 0 0 0 0 39.47l38.74 38.74-81.23-26.27 2.71-8a4.75 4.75 0 0 0-9-3l-8.53 25.25a4.75 4.75 0 1 0 9 3l2.78-8.23 99 32 3.58 3.58a28 28 0 0 0 39.47 0l27.3-27.3a27.94 27.94 0 0 0 .02-39.48zM116.38 19.1C130 5.52 153 6.43 167.67 21.13c12.94 12.94 15.28 32.27 6.26 46.07l-39.8-39.8a4.75 4.75 0 0 0-6.73 0l-8.8 8.89-23.2 3.8zm68.1 98.12l-27.3 27.3a18.44 18.44 0 0 1-26 0L74.07 87.46a18.44 18.44 0 0 1 0-26L78.53 57l5.38-5.38 37.74-6.14a4.74 4.74 0 0 0 2.61-1.35l6.53-6.6 53.69 53.69a18.44 18.44 0 0 1 0 26zM17.75 175.53a4.75 4.75 0 0 0-4.11 2.37C1 199.83 0 208 0 210a17.75 17.75 0 1 0 35.49 0c0-7.84-10.44-26.54-13.63-32.08a4.75 4.75 0 0 0-4.11-2.39zm0 42.71A8.26 8.26 0 0 1 9.49 210c0-2.8 3.8-11.37 8.25-19.86C22.2 198.62 26 207.18 26 210a8.26 8.26 0 0 1-8.25 8.24z"/></g></symbol><symbol id="google-circle" viewBox="0 0 25 26"><path d="M12.5 0C5.596 0 0 5.596 0 12.5 0 19.403 5.596 25 12.5 25S25 19.403 25 12.5C25 5.596 19.404 0 12.5 0zM4.425 12A4.58 4.58 0 0 1 9 7.417c1.19 0 2.273.456 3.087 1.201L10.74 9.94a2.678 2.678 0 0 0-1.738-.637A2.695 2.695 0 0 0 6.308 12c0 1.49 1.205 2.926 2.693 2.926 1.15 0 2.499-.676 2.499-1.926H9.25s-.75-.096-.75 0c0 .738.06-1.511.06-1.511h4.917c.065 0 .1.406.1.734 0 2.531-2.048 4.36-4.576 4.36A4.58 4.58 0 0 1 4.425 12zM20 12.5h-2v2h-1v-2h-2v-1h2v-2h1v2h2v1z" fill-rule="evenodd"/></symbol><symbol id="hamburger" viewBox="0 0 21 16"><path d="M1 2h19c.5 0 1-.5 1-1s-.5-1-1-1H1C.5 0 0 .5 0 1s.5 1 1 1zM1 9h19c.5 0 1-.5 1-1s-.5-1-1-1H1c-.5 0-1 .5-1 1s.5 1 1 1zM1 16h19c.5 0 1-.5 1-1s-.5-1-1-1H1c-.5 0-1 .5-1 1s.5 1 1 1z"/></symbol><symbol id="handyman" viewBox="0 0 205.49 205.08"><path class="cls-1" d="M173.41 45.31a4.89 4.89 0 0 0 6.92 0l23.72-23.72a4.89 4.89 0 0 0 0-6.92L190.82 1.43a4.89 4.89 0 0 0-6.92 0l-23.72 23.73a4.89 4.89 0 0 0 0 6.92l3 3-52 52.1L77 53a40.16 40.16 0 0 0 2-12.7A39.44 39.44 0 0 0 24.72 3.95a4.89 4.89 0 0 0-1.21 8.37L36.73 22.8 35 36.24l-13.69 2L11.2 24.91a4.89 4.89 0 0 0-8.45 1.16 39.41 39.41 0 0 0 36.64 53.87A39 39 0 0 0 52 77.84l34.3 34.26-10.38 10.4-14.23-14.29a4.89 4.89 0 1 0-6.94 6.9l4.7 4.72-51.27 51.28a19.9 19.9 0 0 0 28.14 28.14L87.53 148l3.25 3.26a4.89 4.89 0 1 0 6.94-6.9l-14.9-15L93.22 119l31.73 31.73a39 39 0 0 0-2.09 12.65A39.41 39.41 0 0 0 177 199.94a4.89 4.89 0 0 0 1.2-8.38l-13.24-10.45 1.7-13.41 13.68-2 10.09 13.3a4.89 4.89 0 0 0 8.45-1.16 39.22 39.22 0 0 0 2.75-14.48c0-21.86-17.56-39.64-39.14-39.64a40.16 40.16 0 0 0-12.71 2L118.1 94.11l52-52.1zm-144 147A10.11 10.11 0 1 1 15.1 178l51.07-51 14.31 14.31zm158-180.52l6.32 6.32-16.8 16.8-6.32-6.32zM150.5 136a30 30 0 0 1 12-2.42c16.19 0 29.35 13.39 29.35 29.85v1.27l-5.46-7.21a4.89 4.89 0 0 0-4.61-1.88l-20.21 3a4.89 4.89 0 0 0-4.14 4.22l-2.51 19.84a4.89 4.89 0 0 0 1.82 4.46l7.43 5.86q-.94.06-1.89.06a29.58 29.58 0 0 1-27.1-41.49 4.89 4.89 0 0 0-1-5.43L56.7 68.67a4.89 4.89 0 0 0-5.43-1A29.58 29.58 0 0 1 9.79 40.55v-1.28l5.47 7.21a4.89 4.89 0 0 0 4.61 1.88l20.22-3a4.89 4.89 0 0 0 4.14-4.22l2.56-19.84A4.89 4.89 0 0 0 45 16.85l-7.5-5.95c.68 0 1.37-.08 2-.08A29.64 29.64 0 0 1 69.24 40.3a30 30 0 0 1-2.42 12 4.89 4.89 0 0 0 1 5.4l77.25 77.25a4.9 4.9 0 0 0 5.43 1.05z" id="Layer_1-2" data-name="Layer 1"/></symbol><symbol id="info-circle" viewBox="0 0 24 24"><path d="M24 12c0-6.627-5.373-12-12-12S0 5.373 0 12s5.373 12 12 12 12-5.373 12-12zM2 12C2 6.477 6.477 2 12 2s10 4.477 10 10-4.477 10-10 10S2 17.523 2 12zm8.502 3.375c0 1.425 1.047 1.541 1.934 1.541.32 0 .655-.043.655-.043l.262-1.382s-.146.029-.32.029c-.378 0-.626-.145-.626-.596 0-.131.03-.306.058-.451l.975-5.018h-2.982l-.276 1.381h1.149l-.742 3.782c-.058.291-.087.553-.087.757zm1.338-7.186h1.862l.32-1.644H12.16l-.32 1.644z" fill-rule="evenodd"/></symbol><symbol id="life-saver" viewBox="0 0 42 42"><g fill-rule="evenodd"><path d="M35.142 6.858c7.81 7.81 7.81 20.474 0 28.284-7.81 7.81-20.474 7.81-28.284 0-7.81-7.81-7.81-20.474 0-28.284 7.81-7.81 20.474-7.81 28.284 0z" stroke-width="2"/><path d="M29.023 12.977c4.43 4.431 4.43 11.615 0 16.046-4.431 4.431-11.615 4.431-16.046 0-4.431-4.43-4.431-11.615 0-16.046 4.43-4.43 11.615-4.43 16.046 0z" stroke-width="2"/><path d="M9.796 9.796L6.61 6.61l3.186 3.186 3.186 3.186-3.186-3.186zM35.142 6.858l-6.119 6.119M12.977 29.023l-6.119 6.119M32.209 32.209l-3.187-3.187 3.187 3.187 3.185 3.185-3.185-3.185z" stroke-width="4"/></g></symbol><symbol id="lock" viewBox="0 0 22 31"><path d="M17.929 10.104C20.252 10.63 22 12.694 22 15.15v10.394c0 2.852-2.357 5.175-5.235 5.175H5.235C2.357 30.718 0 28.395 0 25.543V15.149c0-2.851 2.357-5.174 5.235-5.174h10.743V6.957c0-2.535-2.116-4.596-4.717-4.596-2.601 0-4.717 2.061-4.717 4.596 0 .525-.436.95-.976.95a.962.962 0 0 1-.974-.95c0-3.582 2.99-6.496 6.667-6.496 3.676 0 6.668 2.914 6.668 6.496v3.147zM5.235 28.718C3.455 28.718 2 27.284 2 25.543V15.149c0-1.74 1.455-3.174 3.235-3.174h11.53c1.78 0 3.235 1.434 3.235 3.174v10.394c0 1.74-1.455 3.175-3.235 3.175H5.235zM16 21.288c0-.315-.148-.854-.47-1.296a1.825 1.825 0 0 0-1.546-.786H8.581c.07.57.27 1.02.6 1.344.581.567 1.396.576 1.418.576l.487-.007v.482c0 1.244.991 1.412 1.96 1.412h.078v.95h-.077c-2.095 0-2.753-.969-2.89-1.93-.434-.073-1.1-.27-1.648-.807-.606-.592-.914-1.432-.914-2.496v-.474h6.39c.803 0 1.426.289 1.89.704a5.037 5.037 0 0 0-4.833-3.573c-2.785 0-5.042 2.238-5.042 5 0 2.76 2.257 5 5.042 5 2.471 0 4.527-1.765 4.958-4.091v-.008z" fill-rule="evenodd"/></symbol><symbol id="map-marker" viewBox="0 0 9 11"><path d="M4.5 10C3.5 10 1 6.433 1 4.5a3.5 3.5 0 0 1 7 0C8 6.433 5.5 10 4.5 10zm0-4a1.5 1.5 0 1 1 0-3 1.5 1.5 0 0 1 0 3z" stroke="#839094" stroke-width=".7" fill-rule="evenodd"/></symbol><symbol id="minus" viewBox="0 0 16 1"><path d="M7 0H1C.338 0 0 .155 0 1c0-.141.338 0 1 0h14c.663 0 1-.141 1 0 0-.838-.337-1-1-1H7z"/></symbol><symbol id="mobile" viewBox="0 0 15 26"><path d="M11.647 0H2.685C1.205 0 0 1.187 0 2.644v20.181c0 1.458 1.204 2.644 2.685 2.644h8.962c1.48 0 2.685-1.186 2.685-2.644V2.645C14.332 1.186 13.127 0 11.647 0zM2.685 1.04h8.962c.898 0 1.629.72 1.629 1.604v.852H1.056v-.852c0-.884.731-1.603 1.629-1.603zm10.59 21.785c0 .885-.73 1.604-1.628 1.604H2.685c-.898 0-1.628-.72-1.628-1.604v-2.666h12.219v2.666zM1.058 4.456h12.219v14.662H1.056V4.456zm6.109 18.889c.588 0 1.068-.471 1.068-1.051s-.48-1.052-1.068-1.052a1.06 1.06 0 0 0-1.067 1.052c0 .58.479 1.051 1.067 1.051z" fill-rule="evenodd"/></symbol><symbol id="payment" viewBox="0 0 50 51"><g fill-rule="evenodd"><path d="M33.183 13.276c.696 0 1.261.565 1.261 1.26a1.19 1.19 0 1 0 2.381 0c0-1.545-.969-2.869-2.33-3.396v-.334a1.172 1.172 0 0 0-2.345 0v.239a3.648 3.648 0 0 0-2.609 3.492c0 2 1.634 3.626 3.642 3.626.696 0 1.261.56 1.261 1.246 0 .695-.565 1.26-1.26 1.26-.696 0-1.262-.565-1.262-1.26a1.19 1.19 0 1 0-2.38 0 3.648 3.648 0 0 0 2.608 3.492v.39a1.172 1.172 0 0 0 2.344 0v-.485a3.647 3.647 0 0 0 2.331-3.397c0-2-1.634-3.627-3.642-3.627-.695 0-1.26-.558-1.26-1.245 0-.696.565-1.261 1.26-1.261M16.817 29.642c.695 0 1.26.566 1.26 1.261a1.19 1.19 0 1 0 2.382 0 3.648 3.648 0 0 0-2.371-3.412v-.318a1.172 1.172 0 0 0-2.344 0v.25a3.649 3.649 0 0 0-2.57 3.48c0 2 1.635 3.627 3.643 3.627.695 0 1.26.559 1.26 1.246 0 .695-.565 1.26-1.26 1.26-.696 0-1.261-.565-1.261-1.26a1.19 1.19 0 1 0-2.381 0 3.649 3.649 0 0 0 2.57 3.48v.402a1.172 1.172 0 0 0 2.343 0v-.47a3.648 3.648 0 0 0 2.37-3.412c0-2-1.633-3.627-3.641-3.627-.696 0-1.261-.559-1.261-1.246 0-.695.565-1.26 1.26-1.26"/><g transform="translate(0 .008)"><mask id="b"><use xlink:href="#a"/></mask><path d="M33.183 31.4c-7.96 0-14.435-6.475-14.435-14.435 0-7.96 6.476-14.436 14.435-14.436 7.96 0 14.436 6.476 14.436 14.436s-6.476 14.436-14.436 14.436M16.817 47.775c-7.96 0-14.436-6.483-14.436-14.443 0-7.847 6.293-14.251 14.098-14.431.89 7.729 7.04 13.88 14.77 14.769-.173 7.82-6.58 14.105-14.432 14.105M50 16.965C50 7.692 42.456.148 33.183.148c-9.124 0-16.575 7.306-16.81 16.375C7.303 16.759 0 24.21 0 33.336c0 9.272 7.544 16.82 16.817 16.82 9.128 0 16.582-7.356 16.81-16.38C42.697 33.539 50 26.089 50 16.965" mask="url(#b)"/></g></g></symbol><symbol id="pen" viewBox="0 0 18 18"><g fill-rule="evenodd"><path d="M14.283 1.994a2.192 2.192 0 0 1 1.55 3.741l-3.1-3.1c.427-.428.99-.641 1.55-.641m0-1.196c-.906 0-1.756.353-2.396.993l-.845.845 4.79 4.79.846-.845c.64-.64.992-1.49.992-2.395s-.352-1.756-.992-2.395a3.364 3.364 0 0 0-2.395-.993"/><path d="M12.216 3.152l3.1 3.1-9.479 9.48-3.7.924a.269.269 0 0 1-.325-.325l.925-3.7 9.48-9.479m0-1.69L1.656 12.02.652 16.041c-.11.44-.013.898.266 1.256a1.455 1.455 0 0 0 1.51.519l3.699-.924.321-.081 10.56-10.56-4.792-4.79"/></g></symbol><symbol id="phone" viewBox="0 0 15 26"><g fill-rule="evenodd"><path d="M12.131.04H3.17C1.689.04.485 1.228.485 2.686v20.18c0 1.46 1.204 2.645 2.685 2.645h8.961c1.481 0 2.686-1.186 2.686-2.644V2.686c0-1.459-1.205-2.645-2.686-2.645zM3.17 1.082h8.961c.899 0 1.63.72 1.63 1.604v.852H1.54v-.852c0-.885.731-1.604 1.629-1.604zm10.59 21.785c0 .884-.73 1.604-1.629 1.604H3.17c-.898 0-1.629-.72-1.629-1.604V20.2h12.22v2.666zM1.541 4.496h12.22V19.16H1.54V4.497z"/><path d="M7.65 23.386c.59 0 1.069-.472 1.069-1.051 0-.58-.48-1.052-1.068-1.052a1.06 1.06 0 0 0-1.067 1.052c0 .58.479 1.05 1.067 1.05"/></g></symbol><symbol id="play-button" viewBox="0 0 27 27"><path d="M13.5 27C20.956 27 27 20.956 27 13.5S20.956 0 13.5 0 0 6.044 0 13.5 6.044 27 13.5 27zm-2.63-7.714c-.21 0-.421-.06-.613-.179a1.325 1.325 0 0 1-.614-1.141V9.035c0-.477.229-.904.614-1.142a1.143 1.143 0 0 1 1.228 0l7.187 4.466c.385.238.614.664.614 1.14 0 .477-.23.904-.613 1.142l-7.189 4.466a1.16 1.16 0 0 1-.614.179zm.117-10.607a.368.368 0 0 0-.19.056.414.414 0 0 0-.19.36v8.81c0 .216.132.324.19.36a.343.343 0 0 0 .378-.001l6.957-4.405a.42.42 0 0 0 .19-.36.42.42 0 0 0-.19-.358l-6.957-4.405a.346.346 0 0 0-.188-.057z" fill-rule="evenodd"/></symbol><symbol id="plus-circle" viewBox="0 0 24 24"><path d="M22 12c0-5.523-4.477-10-10-10S2 6.477 2 12s4.477 10 10 10 10-4.477 10-10zm-10.65.65H7.286a.65.65 0 1 1 0-1.3h4.064V7.286a.65.65 0 1 1 1.3 0v4.064h4.064a.65.65 0 0 1 0 1.3H12.65v4.064a.65.65 0 1 1-1.3 0V12.65zM0 12C0 5.373 5.373 0 12 0s12 5.373 12 12-5.373 12-12 12S0 18.627 0 12z" fill-rule="evenodd"/></symbol><symbol id="plus" viewBox="0 0 18 18"><path d="M9.9 8.1V.9C9.858.38 9.46 0 9 0c-.476 0-.875.38-.9.9v7.2H.9c-.52.052-.9.432-.9.9 0 .487.38.886.9.9h7.2v7.2c.025.52.424.9.9.9.46 0 .858-.38.9-.9V9.9h7.2c.521-.014.9-.413.9-.9 0-.458-.379-.848-.9-.9H9.9z"/></symbol><symbol id="success-circle" viewBox="0 0 24 24"><path d="M24 12c0-6.627-5.373-12-12-12S0 5.373 0 12s5.373 12 12 12 12-5.373 12-12zM2 12C2 6.477 6.477 2 12 2s10 4.477 10 10-4.477 10-10 10S2 17.523 2 12zm8.837 3.876h-.017a.643.643 0 0 1-.455-.208l-3.197-3.44a.642.642 0 0 1 .946-.865l2.75 2.951 5.418-6.348a.64.64 0 1 1 .895.917l-5.892 6.81a.643.643 0 0 1-.448.183z" fill-rule="evenodd"/></symbol><symbol id="thumbs-up" viewBox="0 0 34 43"><path d="M18.853 6.086c.04-.132.34-1.127.434-1.42.704-2.194 1.312-2.897 2.377-2.59 1.838.527 2.056 6.644.32 12.113a2.076 2.076 0 0 0 .849 2.387c.274.175.498.215 1.099.277.158.016.906.084.784.073.357.033.647.063.943.099.782.095 1.482.219 2.137.39 2.52.66 3.893 1.874 3.963 3.97.154 4.734.204 11.303-.026 13.087-.495 3.835-5.743 5.927-9.532 5.5-1.07-.12-2.094-.394-3.285-.85-.831-.32-3.94-1.704-4.1-1.77-4.241-1.803-8.155-2.723-13.78-2.839l-.04 2c5.354.11 9.02.972 13.039 2.679.115.049 3.276 1.456 4.165 1.797 1.339.513 2.523.829 3.777.97 4.732.533 11.063-1.99 11.74-7.232.25-1.941.2-8.521.04-13.407-.103-3.151-2.173-4.98-5.455-5.84a17.988 17.988 0 0 0-2.402-.44c-.317-.04-.625-.071-1-.106.11.01-.62-.056-.764-.071a5.294 5.294 0 0 1-.354-.045.523.523 0 0 1 .13.073C25.954 8.288 25.7 1.154 22.215.153c-2.526-.726-3.834.785-4.833 3.903-.1.313-.403 1.318-.44 1.434C14.635 12.88 9.5 17.872.957 18.238l.086 1.998c9.491-.406 15.271-6.025 17.81-14.15z" fill-rule="evenodd"/></symbol><symbol id="tick" viewBox="0 0 14 9"><path d="M12.521.333a.564.564 0 0 0-.425.169L4.915 7.445 1.928 4.21a.603.603 0 0 0-.846-.035.59.59 0 0 0-.037.837L4.45 8.698c.112.119.263.187.41.19h.03c.158 0 .306-.059.418-.167l7.624-7.37a.582.582 0 0 0 .18-.417.595.595 0 0 0-.59-.6z" fill-rule="evenodd"/></symbol><symbol id="tie" viewBox="0 0 14 41"><g stroke-width="2" fill-rule="evenodd"><path d="M10.494 14.121a3.18 3.18 0 0 0-3.15-2.746h-.651a3.18 3.18 0 0 0-3.15 2.747l-2.51 18.284a3.479 3.479 0 0 0 .786 2.714l2.534 3.003a3.476 3.476 0 0 0 5.32-.008l2.55-3.043a3.473 3.473 0 0 0 .78-2.707l-2.51-18.244zM9.542 1h-4.93c-1.12 0-1.892 1.482-1.49 2.86l.854 2.934c.237.814.83 1.35 1.49 1.35h3.222c.66 0 1.252-.536 1.49-1.35l.854-2.933C11.433 2.48 10.662 1 9.542 1z"/></g></symbol><symbol id="tooltip-icon" viewBox="0 0 22 23"><path d="M11 22.77c6.075 0 11-4.925 11-11s-4.925-11-11-11-11 4.925-11 11 4.925 11 11 11zm-.176-15.192h2.048l.352-1.808h-2.048l-.352 1.808zm-1.472 7.904c0 1.568 1.152 1.696 2.128 1.696.352 0 .72-.048.72-.048l.288-1.52s-.16.032-.352.032c-.416 0-.688-.16-.688-.656 0-.144.032-.336.064-.496l1.072-5.52h-3.28L9 10.49h1.264l-.816 4.16a4.42 4.42 0 0 0-.096.832z" fill-rule="evenodd"/></symbol><symbol id="twitter-circle" viewBox="0 0 26 26"><path d="M17.47 9.553c.005.105.008.211.008.318 0 3.253-2.58 7.005-7.297 7.005A7.482 7.482 0 0 1 6.25 15.77c.2.023.405.034.612.034a5.282 5.282 0 0 0 3.185-1.054c-1.123-.02-2.07-.731-2.396-1.709a2.692 2.692 0 0 0 1.158-.043c-1.173-.225-2.057-1.22-2.057-2.413v-.032c.346.185.742.296 1.162.308a2.438 2.438 0 0 1-1.141-2.049c0-.451.126-.874.347-1.238a7.386 7.386 0 0 0 5.286 2.573 2.375 2.375 0 0 1-.066-.561c0-1.36 1.148-2.463 2.564-2.463.738 0 1.405.3 1.872.778a5.263 5.263 0 0 0 1.629-.597 2.495 2.495 0 0 1-1.128 1.362 5.314 5.314 0 0 0 1.473-.388 5.11 5.11 0 0 1-1.28 1.275M12.5 0C5.596 0 0 5.372 0 12c0 6.627 5.596 12 12.5 12S25 18.627 25 12c0-6.628-5.596-12-12.5-12" fill-rule="evenodd"/></symbol><symbol id="upload" viewBox="0 0 42 42"><g fill-rule="evenodd"><rect width="40" height="40" rx="20" transform="translate(1 1)" stroke="#CAD8DC"/><path d="M21 14v8.61M20.974 14l-4.105 4.023M20.974 14l4.065 3.985M27.908 22.61v4.177H14v-4.178" stroke="#1B93C4" stroke-width="1.2" stroke-linecap="round" stroke-linejoin="round"/></g></symbol><symbol id="valid" viewBox="0 0 20 20"><path d="M10 20C4.486 20 0 15.514 0 10S4.486 0 10 0s10 4.486 10 10-4.486 10-10 10zm5.42-13.333a.568.568 0 0 0-.417.157l-7.05 6.492-2.933-3.024a.613.613 0 0 0-.83-.034.53.53 0 0 0-.036.783l3.341 3.447c.11.111.258.175.402.177l.031.002c.155 0 .3-.056.41-.158l7.486-6.891a.532.532 0 0 0 .01-.783.598.598 0 0 0-.413-.168z" fill-rule="evenodd"/></symbol><symbol id="warning-circle" viewBox="0 0 24 24"><path d="M24 12c0-6.627-5.373-12-12-12S0 5.373 0 12s5.373 12 12 12 12-5.373 12-12zM2 12C2 6.477 6.477 2 12 2s10 4.477 10 10-4.477 10-10 10S2 17.523 2 12zm9 4.784h2v-2h-2v2zm.152-3h1.681l.167-7h-2l.152 7z" fill-rule="evenodd"/></symbol><symbol id="youtube-circle" viewBox="0 0 26 26"><g fill-rule="evenodd"><path d="M18.864 13.25c0 .981-.124 1.962-.124 1.962s-.12.835-.49 1.203c-.47.483-.996.485-1.238.513-1.728.123-4.322.127-4.322.127s-3.21-.03-4.198-.122c-.275-.05-.892-.035-1.361-.518-.37-.368-.491-1.203-.491-1.203s-.124-.98-.124-1.962v-.92c0-.98.124-1.961.124-1.961s.12-.836.49-1.204c.47-.482.996-.485 1.238-.513 1.728-.122 4.32-.122 4.32-.122h.004s2.592 0 4.32.122c.242.028.768.03 1.237.513.37.368.491 1.204.491 1.204s.124.98.124 1.961v.92zM12.69.671C5.87.671.343 6.098.343 12.792c0 6.694 5.528 12.122 12.347 12.122 6.82 0 12.347-5.428 12.347-12.122S19.509.672 12.69.672z"/><path d="M11.5 14.683l3.337-1.697-3.337-1.709v3.406z"/></g></symbol></svg>